<svg width="20" height="20" viewBox="0 0 20 20" fill="none" xmlns="http://www.w3.org/2000/svg">
<path d="M9.55 0.25C4.525 0.25 0.25 4.75 0.25 10C0.25 15.25 4.525 19.75 9.475 19.75H10.825C14.65 19.75 18.175 17.2 19.675 13.75H18.1C16.771 16.1988 14.266 17.9935 11.5 18.2238V16.8993C11.5 15.9182 11.9185 15.0407 12.676 14.5157L12.6985 14.5015L12.9078 14.3342C13.285 14.4392 13.6915 14.5 14.125 14.5C15.4375 14.5 16.5175 13.981 17.2172 13.1935C17.917 12.406 18.25 11.386 18.25 10.375C18.25 9.36475 17.917 8.344 17.2172 7.5565C16.6277 6.8935 15.7667 6.4255 14.7272 6.29275C14.5705 5.66275 14.29 5.05975 13.8422 4.5565C13.1425 3.769 12.0625 3.25 10.75 3.25C9.4375 3.25 8.3575 3.769 7.65775 4.5565C7.21 5.05975 6.9295 5.662 6.77275 6.29275C5.73325 6.4255 4.87225 6.8935 4.28275 7.5565C3.583 8.344 3.25 9.364 3.25 10.375C3.25 11.3853 3.583 12.406 4.28275 13.1935C4.9825 13.981 6.0625 14.5 7.375 14.5C7.8085 14.5 8.215 14.4385 8.59225 14.335L8.80225 14.5015L8.824 14.5165C9.5815 15.0415 10 15.9182 10 16.8993V18.25H9.55C5.275 18.25 1.75 14.5 1.75 10C1.75 5.5 5.275 1.75 9.475 1.75H10.825C13.825 1.75 16.675 3.625 18.025 6.25H19.75C18.25 2.8 14.725 0.25 10.9 0.25H9.55ZM10.75 4.75C11.6875 4.75 12.295 5.07475 12.7203 5.5525C12.922 5.77975 13.0757 6.0505 13.186 6.34375C12.2957 6.52675 11.5578 6.96625 11.0328 7.5565C10.9313 7.67253 10.8369 7.7945 10.75 7.92175C10.6631 7.7945 10.5687 7.67253 10.4672 7.5565C9.94225 6.96625 9.20425 6.52675 8.314 6.34375C8.42425 6.05125 8.578 5.77975 8.77975 5.5525C9.205 5.07475 9.8125 4.75 10.75 4.75ZM6.6625 7.82875C6.74875 8.686 7.063 9.52375 7.65775 10.1935C8.18275 10.7837 8.92075 11.2233 9.811 11.4062C9.70075 11.6987 9.547 11.9703 9.34525 12.1975C8.92 12.6753 8.3125 13 7.375 13C6.4375 13 5.83 12.6753 5.40475 12.1975C4.9795 11.719 4.75 11.0522 4.75 10.375C4.75 9.69775 4.9795 9.031 5.40475 8.5525C5.71 8.20975 6.115 7.951 6.66325 7.82875H6.6625ZM14.8375 7.82875C15.385 7.951 15.79 8.20975 16.0953 8.5525C16.5205 9.031 16.75 9.69775 16.75 10.375C16.75 11.0522 16.5205 11.719 16.0953 12.1975C15.67 12.6753 15.0625 13 14.125 13C13.1875 13 12.58 12.6753 12.1547 12.1975C11.9523 11.9645 11.7945 11.6963 11.689 11.4062C12.5793 11.2233 13.3172 10.7837 13.8422 10.1935C14.437 9.5245 14.7512 8.686 14.8368 7.82875H14.8375ZM8.16625 7.85425C8.671 7.98325 9.05575 8.227 9.34525 8.5525C9.66925 8.917 9.87775 9.39175 9.95875 9.89575C9.454 9.76675 9.06925 9.523 8.77975 9.1975C8.45575 8.833 8.24725 8.35825 8.16625 7.85425ZM13.3337 7.85425C13.252 8.35825 13.0443 8.833 12.7203 9.19675C12.4308 9.523 12.046 9.76675 11.5413 9.89575C11.623 9.39175 11.8307 8.917 12.1547 8.55325C12.4442 8.227 12.829 7.98325 13.3337 7.85425ZM10.75 12.8275C10.8378 12.9535 10.93 13.0765 11.0328 13.1927C11.161 13.3368 11.3057 13.4688 11.4587 13.594C11.1797 13.8745 10.9585 14.2015 10.75 14.5345C10.5415 14.2015 10.3203 13.8745 10.0413 13.594C10.1943 13.4688 10.339 13.3368 10.4672 13.1927C10.5687 13.0767 10.6631 12.9548 10.75 12.8275Z" fill="#9C7A1B"/>
</svg>
