<?xml version="1.0" encoding="utf-8"?><svg width="20" height="20" fill="none" xmlns="http://www.w3.org/2000/svg" viewBox="0 0 20 20"><path d="M9.55.25C4.525.25.25 4.75.25 10s4.275 9.75 9.225 9.75h1.35c3.825 0 7.35-2.55 8.85-6H18.1c-1.329 2.449-3.834 4.244-6.6 4.474v-1.325c0-.98.418-1.858 1.176-2.383l.022-.014.21-.168c.377.105.784.166 1.217.166 1.313 0 2.392-.519 3.092-1.306.7-.788 1.033-1.808 1.033-2.819 0-1.01-.333-2.031-1.033-2.819-.59-.662-1.45-1.13-2.49-1.263-.157-.63-.437-1.233-.885-1.737-.7-.787-1.78-1.306-3.092-1.306-1.313 0-2.393.519-3.092 1.306-.448.504-.729 1.106-.885 1.737-1.04.133-1.9.6-2.49 1.263-.7.788-1.033 1.808-1.033 2.819 0 1.01.333 2.031 1.033 2.819.7.787 1.78 1.306 3.092 1.306.434 0 .84-.062 1.217-.165l.21.166.022.016C9.582 15.04 10 15.918 10 16.899v1.351h-.45c-4.275 0-7.8-3.75-7.8-8.25s3.525-8.25 7.725-8.25h1.35c3 0 5.85 1.875 7.2 4.5h1.725c-1.5-3.45-5.025-6-8.85-6H9.55zm1.2 4.5c.938 0 1.545.325 1.97.803.202.227.356.498.466.79-.89.184-1.628.623-2.153 1.213a3.866 3.866 0 00-.283.366 3.866 3.866 0 00-.283-.365c-.525-.59-1.263-1.03-2.153-1.213a2.53 2.53 0 01.466-.792c.425-.477 1.033-.802 1.97-.802zM6.662 7.829c.087.857.401 1.695.996 2.365.525.59 1.263 1.03 2.153 1.212a2.53 2.53 0 01-.466.791c-.425.478-1.033.803-1.97.803-.938 0-1.545-.325-1.97-.803-.426-.478-.655-1.145-.655-1.822s.23-1.344.655-1.822c.305-.343.71-.602 1.258-.724zm8.175 0c.548.122.953.38 1.258.724.425.478.655 1.145.655 1.822s-.23 1.344-.655 1.822c-.425.478-1.032.803-1.97.803s-1.545-.325-1.97-.803a2.52 2.52 0 01-.466-.79c.89-.184 1.628-.623 2.153-1.213.595-.67.91-1.508.995-2.365zm-6.67.025c.504.13.889.373 1.178.699.324.364.533.839.614 1.343a2.293 2.293 0 01-1.18-.699 2.657 2.657 0 01-.613-1.343zm5.167 0c-.082.504-.29.979-.614 1.343-.29.326-.674.57-1.179.699.082-.504.29-.979.614-1.343.29-.326.674-.57 1.179-.699zm-2.584 4.974c.088.126.18.248.283.365.128.144.273.276.426.401-.28.28-.5.607-.709.94-.209-.333-.43-.66-.709-.94.153-.125.298-.257.426-.401.102-.116.196-.238.283-.365z" fill="#9C7A1B"/></svg>