<?xml version="1.0" encoding="utf-8"?><svg viewBox="0 0 512 512" xmlns="http://www.w3.org/2000/svg" xmlns:xlink="http://www.w3.org/1999/xlink"><style>:root>svg{display:none}:root>svg:target{display:block}</style><svg fill="none" viewBox="0 0 20 20" id="icon-arrow-back" xmlns="http://www.w3.org/2000/svg"><path fill-rule="evenodd" clip-rule="evenodd" d="M9.636 1.615a1.25 1.25 0 00-1.77 0l-7.499 7.5a1.25 1.25 0 000 1.77l7.5 7.5a1.251 1.251 0 101.77-1.77L3.018 10l6.617-6.615a1.25 1.25 0 000-1.77z" fill="#66646E"/><path fill-rule="evenodd" clip-rule="evenodd" d="M19.998 10a1.25 1.25 0 00-1.25-1.25H2.5a1.25 1.25 0 000 2.5h16.248a1.25 1.25 0 001.25-1.25z" fill="#66646E"/></svg><svg fill="none" viewBox="0 0 8 13" id="icon-arrow-right" xmlns="http://www.w3.org/2000/svg"><path d="M6.827 6.641l.141-.141-.141-.141-5.313-5.313-.141-.141-.142.141-.744.744-.14.141.14.142L4.915 6.5.487 10.927l-.14.142.14.141.744.744.142.141.141-.141L6.827 6.64z" fill="#000" stroke="#000" stroke-width=".4"/></svg><svg fill="#0b2358" viewBox="0 0 512 512" id="icon-basket" xmlns="http://www.w3.org/2000/svg"><path d="M473.119 181.538h-18.217L373.335 27.696c-3.881-7.32-12.961-10.105-20.281-6.228-7.32 3.881-10.108 12.961-6.227 20.281l74.116 139.787H93.233l74.116-139.787c3.881-7.32 1.093-16.4-6.227-20.281-7.319-3.88-16.4-1.092-20.281 6.228L59.275 181.538H38.881C17.442 181.538 0 198.98 0 220.419S17.442 259.3 38.881 259.3h1.079c.033.214.058.429.096.643L71.34 435.357c5.883 32.984 34.47 56.924 67.974 56.924H374.86c33.504 0 62.092-23.94 67.974-56.924l31.284-175.414c.04-.223.067-.447.101-.67 20.931-.587 37.78-17.784 37.78-38.854.001-21.44-17.441-38.881-38.88-38.881zm-59.82 248.552a39.002 39.002 0 01-38.438 32.19H139.315a39.002 39.002 0 01-38.438-32.19L70.419 259.3h373.34l-30.46 170.79zm59.82-200.793H38.881c-4.896 0-8.878-3.982-8.878-8.878s3.982-8.879 8.878-8.879h434.238c4.895 0 8.878 3.982 8.878 8.879 0 4.896-3.982 8.878-8.878 8.878z"/><path d="M255.352 280.113c-8.285 0-15.001 6.717-15.001 15.001v131.351c0 8.285 6.717 15.001 15.001 15.001 8.285 0 15.001-6.717 15.001-15.001V295.114c0-8.285-6.716-15.001-15.001-15.001zM204.169 423.974l-22.124-131.351c-1.375-8.171-9.123-13.679-17.285-12.302-8.17 1.376-13.677 9.115-12.301 17.285l22.125 131.351c1.234 7.327 7.585 12.512 14.774 12.512.828 0 1.667-.068 2.509-.21 8.171-1.376 13.678-9.115 12.302-17.285zM344.895 280.321c-8.161-1.369-15.907 4.131-17.285 12.302l-22.124 131.351c-1.375 8.169 4.132 15.908 12.302 17.285.843.142 1.681.21 2.509.21 7.19 0 13.541-5.185 14.774-12.512l22.124-131.351c1.378-8.17-4.13-15.909-12.3-17.285z"/></svg><svg fill="none" viewBox="0 0 12 10" id="icon-check" xmlns="http://www.w3.org/2000/svg"><path d="M4 7.155L1.366 4.411.234 5.589 4 9.512l7.766-8.09L10.634.244 4 7.155z" fill="#000"/></svg><svg fill="none" viewBox="0 0 16 16" id="icon-close" xmlns="http://www.w3.org/2000/svg"><path d="M9.131 8l2.263-2.262a.8.8 0 00-1.132-1.132L8 6.869 5.738 4.606a.8.8 0 00-1.132 1.132L6.869 8l-2.263 2.262a.8.8 0 101.132 1.132L8 9.131l2.262 2.263a.8.8 0 001.132-1.132L9.131 8zM8 16A8 8 0 118 0a8 8 0 010 16z" fill="#66646E"/></svg><svg fill="none" viewBox="0 0 20 20" id="icon-coton" xmlns="http://www.w3.org/2000/svg"><path d="M9.55.25C4.525.25.25 4.75.25 10s4.275 9.75 9.225 9.75h1.35c3.825 0 7.35-2.55 8.85-6H18.1c-1.329 2.449-3.834 4.244-6.6 4.474v-1.325c0-.98.418-1.858 1.176-2.383l.022-.014.21-.168c.377.105.784.166 1.217.166 1.313 0 2.392-.519 3.092-1.306.7-.788 1.033-1.808 1.033-2.819 0-1.01-.333-2.031-1.033-2.819-.59-.662-1.45-1.13-2.49-1.263-.157-.63-.437-1.233-.885-1.737-.7-.787-1.78-1.306-3.092-1.306-1.313 0-2.393.519-3.092 1.306-.448.504-.729 1.106-.885 1.737-1.04.133-1.9.6-2.49 1.263-.7.788-1.033 1.808-1.033 2.819 0 1.01.333 2.031 1.033 2.819.7.787 1.78 1.306 3.092 1.306.434 0 .84-.062 1.217-.165l.21.166.022.016C9.582 15.04 10 15.918 10 16.899v1.351h-.45c-4.275 0-7.8-3.75-7.8-8.25s3.525-8.25 7.725-8.25h1.35c3 0 5.85 1.875 7.2 4.5h1.725c-1.5-3.45-5.025-6-8.85-6H9.55zm1.2 4.5c.938 0 1.545.325 1.97.803.202.227.356.498.466.79-.89.184-1.628.623-2.153 1.213a3.866 3.866 0 00-.283.366 3.866 3.866 0 00-.283-.365c-.525-.59-1.263-1.03-2.153-1.213a2.53 2.53 0 01.466-.792c.425-.477 1.033-.802 1.97-.802zM6.662 7.829c.087.857.401 1.695.996 2.365.525.59 1.263 1.03 2.153 1.212a2.53 2.53 0 01-.466.791c-.425.478-1.033.803-1.97.803-.938 0-1.545-.325-1.97-.803-.426-.478-.655-1.145-.655-1.822s.23-1.344.655-1.822c.305-.343.71-.602 1.258-.724zm8.175 0c.548.122.953.38 1.258.724.425.478.655 1.145.655 1.822s-.23 1.344-.655 1.822c-.425.478-1.032.803-1.97.803s-1.545-.325-1.97-.803a2.52 2.52 0 01-.466-.79c.89-.184 1.628-.623 2.153-1.213.595-.67.91-1.508.995-2.365zm-6.67.025c.504.13.889.373 1.178.699.324.364.533.839.614 1.343a2.293 2.293 0 01-1.18-.699 2.657 2.657 0 01-.613-1.343zm5.167 0c-.082.504-.29.979-.614 1.343-.29.326-.674.57-1.179.699.082-.504.29-.979.614-1.343.29-.326.674-.57 1.179-.699zm-2.584 4.974c.088.126.18.248.283.365.128.144.273.276.426.401-.28.28-.5.607-.709.94-.209-.333-.43-.66-.709-.94.153-.125.298-.257.426-.401.102-.116.196-.238.283-.365z" fill="#9C7A1B"/></svg><svg fill="none" viewBox="0 0 70 70" id="icon-mail" xmlns="http://www.w3.org/2000/svg"><path d="M57.969 13.125H12.03a5.469 5.469 0 00-5.469 5.469v32.812a5.469 5.469 0 005.47 5.469h45.937a5.469 5.469 0 005.468-5.469V18.594a5.469 5.469 0 00-5.468-5.469z" stroke="#0B2358" stroke-width="3" stroke-linecap="round" stroke-linejoin="round"/><path d="M15.313 21.875L35 37.188l19.688-15.313" stroke="#0B2358" stroke-width="3" stroke-linecap="round" stroke-linejoin="round"/></svg><svg fill="none" viewBox="0 0 16 16" id="icon-tooltip" xmlns="http://www.w3.org/2000/svg"><path d="M8 14.546a6.545 6.545 0 100-13.09 6.545 6.545 0 000 13.09zM8 11V8M8 5.001h.008" stroke="#66646E" stroke-width="2" stroke-linecap="round" stroke-linejoin="round"/></svg></svg>