<svg width="20" height="20" viewBox="0 0 20 20" fill="none" xmlns="http://www.w3.org/2000/svg">
<path fill-rule="evenodd" clip-rule="evenodd" d="M9.63616 1.61528C9.52006 1.49887 9.38213 1.40652 9.23029 1.3435C9.07844 1.28048 8.91566 1.24805 8.75126 1.24805C8.58686 1.24805 8.42407 1.28048 8.27223 1.3435C8.12038 1.40652 7.98246 1.49887 7.86636 1.61528L0.367193 9.11528C0.250798 9.23139 0.158452 9.36933 0.0954426 9.5212C0.0324335 9.67306 0 9.83586 0 10.0003C0 10.1647 0.0324335 10.3275 0.0954426 10.4794C0.158452 10.6312 0.250798 10.7692 0.367193 10.8853L7.86636 18.3853C8.10105 18.62 8.41936 18.7519 8.75126 18.7519C9.08316 18.7519 9.40147 18.62 9.63616 18.3853C9.87085 18.1506 10.0027 17.8322 10.0027 17.5003C10.0027 17.1683 9.87085 16.85 9.63616 16.6153L3.0194 10.0003L9.63616 3.38528C9.75255 3.26917 9.8449 3.13123 9.90791 2.97936C9.97092 2.8275 10.0034 2.6647 10.0034 2.50028C10.0034 2.33586 9.97092 2.17306 9.90791 2.0212C9.8449 1.86933 9.75255 1.73139 9.63616 1.61528Z" fill="#66646E"/>
<path fill-rule="evenodd" clip-rule="evenodd" d="M19.9979 10C19.9979 9.66848 19.8662 9.35054 19.6318 9.11612C19.3974 8.8817 19.0795 8.75 18.748 8.75H2.49986C2.16838 8.75 1.85047 8.8817 1.61608 9.11612C1.38168 9.35054 1.25 9.66848 1.25 10C1.25 10.3315 1.38168 10.6495 1.61608 10.8839C1.85047 11.1183 2.16838 11.25 2.49986 11.25H18.748C19.0795 11.25 19.3974 11.1183 19.6318 10.8839C19.8662 10.6495 19.9979 10.3315 19.9979 10Z" fill="#66646E"/>
</svg>
