<?xml version="1.0" encoding="iso-8859-1"?><svg fill="#0b2358" xmlns="http://www.w3.org/2000/svg" viewBox="0 0 512 512" width="512" height="512"><path d="M473.119 181.538h-18.217L373.335 27.696c-3.881-7.32-12.961-10.105-20.281-6.228-7.32 3.881-10.108 12.961-6.227 20.281l74.116 139.787H93.233l74.116-139.787c3.881-7.32 1.093-16.4-6.227-20.281-7.319-3.88-16.4-1.092-20.281 6.228L59.275 181.538H38.881C17.442 181.538 0 198.98 0 220.419S17.442 259.3 38.881 259.3h1.079c.033.214.058.429.096.643L71.34 435.357c5.883 32.984 34.47 56.924 67.974 56.924H374.86c33.504 0 62.092-23.94 67.974-56.924l31.284-175.414c.04-.223.067-.447.101-.67 20.931-.587 37.78-17.784 37.78-38.854.001-21.44-17.441-38.881-38.88-38.881zm-59.82 248.552a39.002 39.002 0 01-38.438 32.19H139.315a39.002 39.002 0 01-38.438-32.19L70.419 259.3h373.34l-30.46 170.79zm59.82-200.793H38.881c-4.896 0-8.878-3.982-8.878-8.878s3.982-8.879 8.878-8.879h434.238c4.895 0 8.878 3.982 8.878 8.879 0 4.896-3.982 8.878-8.878 8.878z"/><path d="M255.352 280.113c-8.285 0-15.001 6.717-15.001 15.001v131.351c0 8.285 6.717 15.001 15.001 15.001 8.285 0 15.001-6.717 15.001-15.001V295.114c0-8.285-6.716-15.001-15.001-15.001zM204.169 423.974l-22.124-131.351c-1.375-8.171-9.123-13.679-17.285-12.302-8.17 1.376-13.677 9.115-12.301 17.285l22.125 131.351c1.234 7.327 7.585 12.512 14.774 12.512.828 0 1.667-.068 2.509-.21 8.171-1.376 13.678-9.115 12.302-17.285zM344.895 280.321c-8.161-1.369-15.907 4.131-17.285 12.302l-22.124 131.351c-1.375 8.169 4.132 15.908 12.302 17.285.843.142 1.681.21 2.509.21 7.19 0 13.541-5.185 14.774-12.512l22.124-131.351c1.378-8.17-4.13-15.909-12.3-17.285z"/></svg>